<svg width="14" height="14" viewBox="0 0 14 14" fill="none" xmlns="http://www.w3.org/2000/svg">
<path d="M10.0771 10.5729L9.82917 10.325C9.74167 10.2375 9.63725 10.1938 9.51592 10.1938C9.39458 10.1938 9.28997 10.2375 9.20208 10.325C9.11419 10.4125 9.07044 10.5146 9.07083 10.6313C9.07122 10.7479 9.11497 10.85 9.20208 10.9375L9.77083 11.5062C9.85833 11.5938 9.96042 11.6375 10.0771 11.6375C10.1937 11.6375 10.2958 11.5938 10.3833 11.5062L11.7979 10.1208C11.8854 10.0333 11.9292 9.92872 11.9292 9.807C11.9292 9.68528 11.8854 9.58086 11.7979 9.49375C11.7104 9.40664 11.6058 9.36289 11.4841 9.3625C11.3624 9.36211 11.2579 9.40586 11.1708 9.49375L10.0771 10.5729ZM4.08333 5.25H9.91667C10.0819 5.25 10.2206 5.194 10.3326 5.082C10.4446 4.97 10.5004 4.83156 10.5 4.66667C10.4996 4.50178 10.4436 4.36333 10.332 4.25133C10.2204 4.13933 10.0819 4.08333 9.91667 4.08333H4.08333C3.91806 4.08333 3.77961 4.13933 3.668 4.25133C3.55639 4.36333 3.50039 4.50178 3.5 4.66667C3.49961 4.83156 3.55561 4.97019 3.668 5.08258C3.78039 5.19497 3.91883 5.25078 4.08333 5.25ZM10.5 13.4167C9.69306 13.4167 9.00531 13.1322 8.43675 12.5632C7.86819 11.9943 7.58372 11.3066 7.58333 10.5C7.58294 9.69344 7.86742 9.00569 8.43675 8.43675C9.00608 7.86781 9.69383 7.58333 10.5 7.58333C11.3062 7.58333 11.9941 7.86781 12.5638 8.43675C13.1336 9.00569 13.4178 9.69344 13.4167 10.5C13.4155 11.3066 13.131 11.9945 12.5632 12.5638C11.9955 13.1332 11.3077 13.4174 10.5 13.4167ZM1.75 2.91667C1.75 2.59583 1.86433 2.32128 2.093 2.093C2.32167 1.86472 2.59622 1.75039 2.91667 1.75H11.0833C11.4042 1.75 11.6789 1.86433 11.9076 2.093C12.1362 2.32167 12.2504 2.59622 12.25 2.91667V6.05208C12.25 6.21736 12.194 6.356 12.082 6.468C11.97 6.58 11.8316 6.63581 11.6667 6.63542C11.5018 6.63503 11.3633 6.57903 11.2513 6.46742C11.1393 6.35581 11.0833 6.21736 11.0833 6.05208V2.91667H2.91667V11.1125H6.46042C6.47986 11.2583 6.50903 11.4042 6.54792 11.55C6.58681 11.6958 6.63056 11.8368 6.67917 11.9729C6.72778 12.0799 6.70833 12.165 6.62083 12.2284C6.53333 12.2918 6.45069 12.2844 6.37292 12.2062L6.32917 12.1625C6.27083 12.1042 6.20278 12.075 6.125 12.075C6.04722 12.075 5.97917 12.1042 5.92083 12.1625L5.45417 12.6292C5.39583 12.6875 5.32778 12.7167 5.25 12.7167C5.17222 12.7167 5.10417 12.6875 5.04583 12.6292L4.57917 12.1625C4.52083 12.1042 4.45278 12.075 4.375 12.075C4.29722 12.075 4.22917 12.1042 4.17083 12.1625L3.70417 12.6292C3.64583 12.6875 3.57778 12.7167 3.5 12.7167C3.42222 12.7167 3.35417 12.6875 3.29583 12.6292L2.82917 12.1625C2.77083 12.1042 2.70278 12.075 2.625 12.075C2.54722 12.075 2.47917 12.1042 2.42083 12.1625L1.75 12.8333V2.91667ZM4.08333 9.91667H6.05208C6.21736 9.91667 6.356 9.86067 6.468 9.74867C6.58 9.63667 6.63581 9.49822 6.63542 9.33333C6.63503 9.16844 6.57903 9.03 6.46742 8.918C6.35581 8.806 6.21736 8.75 6.05208 8.75H4.08333C3.91806 8.75 3.77961 8.806 3.668 8.918C3.55639 9.03 3.50039 9.16844 3.5 9.33333C3.49961 9.49822 3.55561 9.63686 3.668 9.74925C3.78039 9.86164 3.91883 9.91744 4.08333 9.91667ZM4.08333 7.58333H7.90417C8.06944 7.58333 8.20808 7.52733 8.32008 7.41533C8.43208 7.30333 8.48789 7.16489 8.4875 7C8.48711 6.83511 8.43111 6.69667 8.3195 6.58467C8.20789 6.47267 8.06944 6.41667 7.90417 6.41667H4.08333C3.91806 6.41667 3.77961 6.47267 3.668 6.58467C3.55639 6.69667 3.50039 6.83511 3.5 7C3.49961 7.16489 3.55561 7.30353 3.668 7.41592C3.78039 7.52831 3.91883 7.58411 4.08333 7.58333Z" fill="#034099"/>
</svg>
