<svg width="16" height="16" viewBox="0 0 16 16" fill="none" xmlns="http://www.w3.org/2000/svg">
<g clip-path="url(#clip0_188_714)">
<path d="M12.6667 9.33335V4.00002C12.6667 3.26669 12.0667 2.66669 11.3334 2.66669H2.00008C1.26675 2.66669 0.666748 3.26669 0.666748 4.00002V9.33335C0.666748 10.0667 1.26675 10.6667 2.00008 10.6667H11.3334C12.0667 10.6667 12.6667 10.0667 12.6667 9.33335ZM11.3334 9.33335H2.00008V4.00002H11.3334V9.33335ZM6.66675 4.66669C5.56008 4.66669 4.66675 5.56002 4.66675 6.66669C4.66675 7.77335 5.56008 8.66669 6.66675 8.66669C7.77342 8.66669 8.66675 7.77335 8.66675 6.66669C8.66675 5.56002 7.77342 4.66669 6.66675 4.66669ZM15.3334 4.66669V12C15.3334 12.7334 14.7334 13.3334 14.0001 13.3334H2.66675V12H14.0001V4.66669H15.3334Z" fill="#034099"/>
</g>
<defs>
<clipPath id="clip0_188_714">
<rect width="16" height="16" fill="white"/>
</clipPath>
</defs>
</svg>
