<svg width="16" height="16" viewBox="0 0 16 16" fill="none" xmlns="http://www.w3.org/2000/svg">
<g clip-path="url(#clip0_188_706)">
<path d="M13 2.33331L12 1.33331L11 2.33331L10 1.33331L9 2.33331L8 1.33331L7 2.33331L6 1.33331L5 2.33331L4 1.33331V10.6666H2V12.6666C2 13.7733 2.89333 14.6666 4 14.6666H12C13.1067 14.6666 14 13.7733 14 12.6666V1.33331L13 2.33331ZM10 13.3333H4C3.63333 13.3333 3.33333 13.0333 3.33333 12.6666V12H10V13.3333ZM12.6667 12.6666C12.6667 13.0333 12.3667 13.3333 12 13.3333C11.6333 13.3333 11.3333 13.0333 11.3333 12.6666V10.6666H5.33333V3.33331H12.6667V12.6666Z" fill="#034099"/>
<path d="M10 4.66663H6V5.99996H10V4.66663Z" fill="#034099"/>
<path d="M12.0001 4.66663H10.6667V5.99996H12.0001V4.66663Z" fill="#034099"/>
<path d="M10 6.66663H6V7.99996H10V6.66663Z" fill="#034099"/>
<path d="M12.0001 6.66663H10.6667V7.99996H12.0001V6.66663Z" fill="#034099"/>
</g>
<defs>
<clipPath id="clip0_188_706">
<rect width="16" height="16" fill="white"/>
</clipPath>
</defs>
</svg>
