<svg width="16" height="16" viewBox="0 0 16 16" fill="none" xmlns="http://www.w3.org/2000/svg">
<g clip-path="url(#clip0_188_657)">
<path d="M4.66675 12C3.93341 12 3.34008 12.6 3.34008 13.3333C3.34008 14.0667 3.93341 14.6667 4.66675 14.6667C5.40008 14.6667 6.00008 14.0667 6.00008 13.3333C6.00008 12.6 5.40008 12 4.66675 12ZM11.3334 12C10.6001 12 10.0067 12.6 10.0067 13.3333C10.0067 14.0667 10.6001 14.6667 11.3334 14.6667C12.0667 14.6667 12.6667 14.0667 12.6667 13.3333C12.6667 12.6 12.0667 12 11.3334 12ZM5.40008 8.66668H10.3667C10.8667 8.66668 11.3067 8.39334 11.5334 7.98001L14.0001 3.30668L12.8334 2.66668L10.3667 7.33334H5.68675L2.84675 1.33334H0.666748V2.66668H2.00008L4.40008 7.72668L3.50008 9.35334C3.01341 10.2467 3.65341 11.3333 4.66675 11.3333H12.6667V10H4.66675L5.40008 8.66668ZM8.00008 1.33334L10.6667 4.00001L8.00008 6.66668L7.06008 5.72668L8.11341 4.66668H5.33341V3.33334H8.11341L7.05341 2.27334L8.00008 1.33334Z" fill="#034099"/>
</g>
<defs>
<clipPath id="clip0_188_657">
<rect width="16" height="16" fill="white"/>
</clipPath>
</defs>
</svg>
