<svg width="21" height="21" viewBox="0 0 21 21" fill="none" xmlns="http://www.w3.org/2000/svg">
<path d="M10.5 19.25C5.67875 19.25 1.75 15.3212 1.75 10.5C1.75 5.67875 5.67875 1.75 10.5 1.75C15.3212 1.75 19.25 5.285 19.25 9.625C19.25 12.5212 16.8962 14.875 14 14.875H12.4513C12.2062 14.875 12.0138 15.0675 12.0138 15.3125C12.0138 15.4175 12.0575 15.5138 12.1275 15.6012C12.4862 16.0125 12.6875 16.5288 12.6875 17.0625C12.6875 17.6427 12.457 18.1991 12.0468 18.6093C11.6366 19.0195 11.0802 19.25 10.5 19.25ZM10.5 3.5C6.64125 3.5 3.5 6.64125 3.5 10.5C3.5 14.3587 6.64125 17.5 10.5 17.5C10.745 17.5 10.9375 17.3075 10.9375 17.0625C10.9348 16.949 10.8913 16.8403 10.815 16.7562C10.4562 16.3537 10.2638 15.8375 10.2638 15.3125C10.2638 14.7323 10.4942 14.1759 10.9045 13.7657C11.3147 13.3555 11.8711 13.125 12.4513 13.125H14C15.9338 13.125 17.5 11.5588 17.5 9.625C17.5 6.2475 14.3587 3.5 10.5 3.5Z" fill="black"/>
<path d="M5.6875 11.375C6.41237 11.375 7 10.7874 7 10.0625C7 9.33763 6.41237 8.75 5.6875 8.75C4.96263 8.75 4.375 9.33763 4.375 10.0625C4.375 10.7874 4.96263 11.375 5.6875 11.375Z" fill="black"/>
<path d="M8.3125 7.875C9.03737 7.875 9.625 7.28737 9.625 6.5625C9.625 5.83763 9.03737 5.25 8.3125 5.25C7.58763 5.25 7 5.83763 7 6.5625C7 7.28737 7.58763 7.875 8.3125 7.875Z" fill="black"/>
<path d="M12.6875 7.875C13.4124 7.875 14 7.28737 14 6.5625C14 5.83763 13.4124 5.25 12.6875 5.25C11.9626 5.25 11.375 5.83763 11.375 6.5625C11.375 7.28737 11.9626 7.875 12.6875 7.875Z" fill="black"/>
<path d="M15.3125 11.375C16.0374 11.375 16.625 10.7874 16.625 10.0625C16.625 9.33763 16.0374 8.75 15.3125 8.75C14.5876 8.75 14 9.33763 14 10.0625C14 10.7874 14.5876 11.375 15.3125 11.375Z" fill="black"/>
</svg>
