<svg width="22" height="22" viewBox="0 0 22 22" fill="none" xmlns="http://www.w3.org/2000/svg">
<path d="M5.50004 18.333C5.24032 18.333 5.02277 18.245 4.84738 18.069C4.67199 17.893 4.58399 17.6755 4.58338 17.4163C4.58276 17.1572 4.67077 16.9397 4.84738 16.7637C5.02399 16.5877 5.24154 16.4997 5.50004 16.4997H16.5C16.7598 16.4997 16.9776 16.5877 17.1536 16.7637C17.3296 16.9397 17.4173 17.1572 17.4167 17.4163C17.4161 17.6755 17.3281 17.8933 17.1527 18.0699C16.9773 18.2465 16.7598 18.3342 16.5 18.333H5.50004ZM6.14171 15.1247C5.69865 15.1247 5.3054 14.9795 4.96196 14.6893C4.61852 14.399 4.40829 14.0323 4.33129 13.5893L3.41463 7.76843C3.38407 7.76843 3.34985 7.7724 3.31196 7.78034C3.27407 7.78829 3.23954 7.79195 3.20838 7.79134C2.82643 7.79134 2.50193 7.65781 2.23488 7.39076C1.96782 7.1237 1.83399 6.7989 1.83338 6.41634C1.83276 6.03379 1.9666 5.70929 2.23488 5.44284C2.50315 5.1764 2.82765 5.04257 3.20838 5.04134C3.5891 5.04012 3.9139 5.17395 4.18279 5.44284C4.45168 5.71173 4.58521 6.03623 4.58338 6.41634C4.58338 6.52329 4.57176 6.62259 4.54854 6.71426C4.52532 6.80593 4.49874 6.88995 4.46879 6.96634L7.33338 8.24968L10.198 4.33093C10.0299 4.2087 9.8924 4.04829 9.78546 3.84968C9.67851 3.65107 9.62504 3.43718 9.62504 3.20801C9.62504 2.82607 9.75888 2.50126 10.0265 2.23359C10.2942 1.96593 10.6187 1.8324 11 1.83301C11.3814 1.83362 11.7062 1.96745 11.9745 2.23451C12.2427 2.50157 12.3763 2.82607 12.375 3.20801C12.375 3.43718 12.3216 3.65107 12.2146 3.84968C12.1077 4.04829 11.9702 4.2087 11.8021 4.33093L14.6667 8.24968L17.5313 6.96634C17.5007 6.88995 17.4738 6.80593 17.4506 6.71426C17.4274 6.62259 17.4161 6.52329 17.4167 6.41634C17.4167 6.0344 17.5505 5.70959 17.8182 5.44193C18.0859 5.17426 18.4104 5.04073 18.7917 5.04134C19.173 5.04195 19.4978 5.17579 19.7661 5.44284C20.0344 5.7099 20.1679 6.0344 20.1667 6.41634C20.1655 6.79829 20.032 7.12309 19.7661 7.39076C19.5003 7.65843 19.1755 7.79195 18.7917 7.79134C18.7612 7.79134 18.7269 7.78768 18.689 7.78034C18.6512 7.77301 18.6166 7.76904 18.5855 7.76843L17.6688 13.5893C17.5924 14.0323 17.3825 14.399 17.039 14.6893C16.6956 14.9795 16.302 15.1247 15.8584 15.1247H6.14171ZM6.14171 13.2913H15.8584L16.4542 9.46426L15.4 9.92259C15.0028 10.0906 14.598 10.1212 14.1855 10.0143C13.773 9.90732 13.4368 9.67815 13.1771 9.32676L11 6.32468L8.82296 9.32676C8.56324 9.67815 8.22713 9.90732 7.81463 10.0143C7.40213 10.1212 6.99726 10.0906 6.60004 9.92259L5.54588 9.46426L6.14171 13.2913Z" fill="#034099"/>
</svg>
