<svg width="14" height="14" viewBox="0 0 14 14" fill="none" xmlns="http://www.w3.org/2000/svg">
<path d="M8.16659 1.16699H3.49992C3.1905 1.16699 2.89375 1.28991 2.67496 1.5087C2.45617 1.72749 2.33325 2.02424 2.33325 2.33366V11.667C2.33325 11.9764 2.45617 12.2732 2.67496 12.492C2.89375 12.7107 3.1905 12.8337 3.49992 12.8337H10.4999C10.8093 12.8337 11.1061 12.7107 11.3249 12.492C11.5437 12.2732 11.6666 11.9764 11.6666 11.667V4.66699L8.16659 1.16699Z" stroke="#034099" stroke-width="1.5" stroke-linecap="round" stroke-linejoin="round"/>
<path d="M8.16675 1.16699V4.66699H11.6667" stroke="#034099" stroke-width="1.5" stroke-linecap="round" stroke-linejoin="round"/>
<path d="M9.33341 7.58301H4.66675" stroke="#034099" stroke-width="1.5" stroke-linecap="round" stroke-linejoin="round"/>
<path d="M9.33341 9.91699H4.66675" stroke="#034099" stroke-width="1.5" stroke-linecap="round" stroke-linejoin="round"/>
<path d="M5.83329 5.25H5.24996H4.66663" stroke="#034099" stroke-width="1.5" stroke-linecap="round" stroke-linejoin="round"/>
</svg>
