<svg width="16" height="16" viewBox="0 0 16 16" fill="none" xmlns="http://www.w3.org/2000/svg">
<path d="M3.53906 4C4.11198 3.35938 4.78385 2.86719 5.55469 2.52344C6.32552 2.17969 7.14062 2.00521 8 2C8.16667 2 8.33333 2.00781 8.5 2.02344C8.66667 2.03906 8.83333 2.0599 9 2.08594V3.10156C8.83333 3.07031 8.66667 3.04688 8.5 3.03125C8.33333 3.01562 8.16667 3.00521 8 3C7.45833 3 6.9375 3.08594 6.4375 3.25781C5.9375 3.42969 5.46875 3.67708 5.03125 4H3.53906ZM12.8984 9C12.9297 8.83333 12.9531 8.66667 12.9688 8.5C12.9844 8.33333 12.9948 8.16667 13 8C13 7.83333 12.9922 7.66667 12.9766 7.5C12.9609 7.33333 12.9349 7.16667 12.8984 7H13.9141C13.9401 7.16667 13.9609 7.33333 13.9766 7.5C13.9922 7.66667 14 7.83333 14 8C14 8.16667 13.9922 8.33333 13.9766 8.5C13.9609 8.66667 13.9401 8.83333 13.9141 9H12.8984ZM4.02344 11C4.25781 11.3125 4.52344 11.5911 4.82031 11.8359C5.11719 12.0807 5.4349 12.2917 5.77344 12.4688C6.11198 12.6458 6.47135 12.776 6.85156 12.8594C7.23177 12.9427 7.61458 12.9896 8 13C8.16667 13 8.33333 12.9922 8.5 12.9766C8.66667 12.9609 8.83333 12.9349 9 12.8984V13.9141C8.83333 13.9401 8.66667 13.9609 8.5 13.9766C8.33333 13.9922 8.16667 14 8 14C7.46354 14 6.94271 13.9323 6.4375 13.7969C5.93229 13.6615 5.45573 13.4609 5.00781 13.1953C4.5599 12.9297 4.14844 12.6146 3.77344 12.25C3.39844 11.8854 3.07812 11.4688 2.8125 11H4.02344ZM16 1V6H10V1H16ZM15 2H11V5H15V2ZM10 10H16V15H10V10ZM11 14H15V11H11V14ZM6 10H0V5H6V10ZM5 6H1V9H5V6Z" fill="#034099"/>
</svg>
