<svg width="14" height="15" viewBox="0 0 14 15" fill="none" xmlns="http://www.w3.org/2000/svg">
<path d="M7.00759 5.47368C7.96683 5.47368 8.74444 4.69607 8.74444 3.73684C8.74444 2.77761 7.96683 2 7.00759 2C6.04836 2 5.27075 2.77761 5.27075 3.73684C5.27075 4.69607 6.04836 5.47368 7.00759 5.47368Z" stroke="#034099" stroke-width="1.5" stroke-linecap="round" stroke-linejoin="round"/>
<path d="M3.82332 5.47369C3.57279 5.47629 3.32985 5.56009 3.13099 5.7125C2.93212 5.86491 2.78806 6.07771 2.72043 6.31896L1.27595 11.5526C1.23219 11.722 1.22737 11.8991 1.26187 12.0707C1.29638 12.2422 1.3693 12.4036 1.47516 12.5429C1.58102 12.6822 1.71707 12.7957 1.87309 12.8749C2.0291 12.954 2.20103 12.9968 2.37595 13H11.6391C11.8178 12.9999 11.9941 12.9585 12.1541 12.879C12.3141 12.7994 12.4536 12.6839 12.5615 12.5415C12.6695 12.3991 12.743 12.2336 12.7763 12.058C12.8096 11.8825 12.8018 11.7016 12.7536 11.5295L11.2917 6.34211C11.228 6.09514 11.0845 5.87613 10.8835 5.7191C10.6825 5.56207 10.4352 5.4758 10.1802 5.47369H3.82332Z" stroke="#034099" stroke-width="1.5" stroke-linecap="round" stroke-linejoin="round"/>
</svg>
