<svg width="20" height="20" viewBox="0 0 20 20" fill="none" xmlns="http://www.w3.org/2000/svg">
<path d="M7 17.5C5.73611 17.5 4.67 17.0661 3.80167 16.1983C2.93333 15.3306 2.49944 14.2644 2.5 13C2.5 12.4722 2.59028 11.9583 2.77083 11.4583C2.95139 10.9583 3.20833 10.5069 3.54167 10.1042L6.5 6.54167L4.47917 2.5H15.5208L13.5 6.54167L16.4583 10.1042C16.7917 10.5069 17.0486 10.9583 17.2292 11.4583C17.4097 11.9583 17.5 12.4722 17.5 13C17.5 14.2639 17.0625 15.33 16.1875 16.1983C15.3125 17.0667 14.25 17.5006 13 17.5H7ZM10 13.3333C9.54167 13.3333 9.14945 13.1703 8.82333 12.8442C8.49722 12.5181 8.33389 12.1256 8.33333 11.6667C8.33278 11.2078 8.49611 10.8156 8.82333 10.49C9.15056 10.1644 9.54278 10.0011 10 10C10.4572 9.99889 10.8497 10.1622 11.1775 10.49C11.5053 10.8178 11.6683 11.21 11.6667 11.6667C11.665 12.1233 11.5019 12.5158 11.1775 12.8442C10.8531 13.1725 10.4606 13.3356 10 13.3333ZM8.02083 5.83333H11.9792L12.8125 4.16667H7.1875L8.02083 5.83333ZM7 15.8333H13C13.7917 15.8333 14.4619 15.5592 15.0108 15.0108C15.5597 14.4625 15.8339 13.7922 15.8333 13C15.8333 12.6667 15.7742 12.3439 15.6558 12.0317C15.5375 11.7194 15.3744 11.4381 15.1667 11.1875L12.1042 7.5H7.91667L4.83333 11.1667C4.625 11.4167 4.46194 11.7014 4.34417 12.0208C4.22639 12.3403 4.16722 12.6667 4.16667 13C4.16667 13.7917 4.44111 14.4619 4.99 15.0108C5.53889 15.5597 6.20889 15.8339 7 15.8333Z" fill="#034099"/>
</svg>
