<svg width="18" height="18" viewBox="0 0 18 18" fill="none" xmlns="http://www.w3.org/2000/svg">
<path d="M13.875 2.625L15.375 4.125L4.125 15.375L2.625 13.875L13.875 2.625ZM5.25 3C6.495 3 7.5 4.005 7.5 5.25C7.5 6.495 6.495 7.5 5.25 7.5C4.005 7.5 3 6.495 3 5.25C3 4.005 4.005 3 5.25 3ZM12.75 10.5C13.995 10.5 15 11.505 15 12.75C15 13.995 13.995 15 12.75 15C11.505 15 10.5 13.995 10.5 12.75C10.5 11.505 11.505 10.5 12.75 10.5ZM5.25 4.5C4.8375 4.5 4.5 4.8375 4.5 5.25C4.5 5.6625 4.8375 6 5.25 6C5.6625 6 6 5.6625 6 5.25C6 4.8375 5.6625 4.5 5.25 4.5ZM12.75 12C12.3375 12 12 12.3375 12 12.75C12 13.1625 12.3375 13.5 12.75 13.5C13.1625 13.5 13.5 13.1625 13.5 12.75C13.5 12.3375 13.1625 12 12.75 12Z" fill="#034099"/>
</svg>
