<svg width="14" height="14" viewBox="0 0 14 14" fill="none" xmlns="http://www.w3.org/2000/svg">
<g clip-path="url(#clip0_15_688)">
<path d="M13.4166 2.33331V5.83331H9.91663" stroke="#034099" stroke-width="1.5" stroke-linecap="round" stroke-linejoin="round"/>
<path d="M0.583374 11.6667V8.16669H4.08337" stroke="#034099" stroke-width="1.5" stroke-linecap="round" stroke-linejoin="round"/>
<path d="M2.04754 5.25002C2.34339 4.41398 2.8462 3.66651 3.50906 3.07735C4.17192 2.48819 4.97323 2.07655 5.83821 1.88084C6.70319 1.68513 7.60365 1.71172 8.45557 1.95814C9.30749 2.20456 10.0831 2.66277 10.71 3.29002L13.4167 5.83336M0.583374 8.16669L3.29004 10.71C3.91698 11.3373 4.69259 11.7955 5.54451 12.0419C6.39643 12.2883 7.29689 12.3149 8.16187 12.1192C9.02685 11.9235 9.82816 11.5119 10.491 10.9227C11.1539 10.3335 11.6567 9.58607 11.9525 8.75002" stroke="#034099" stroke-width="1.5" stroke-linecap="round" stroke-linejoin="round"/>
</g>
<defs>
<clipPath id="clip0_15_688">
<rect width="14" height="14" fill="white"/>
</clipPath>
</defs>
</svg>
