<svg width="16" height="16" viewBox="0 0 16 16" fill="none" xmlns="http://www.w3.org/2000/svg">
<path d="M1.33337 13.3333H14.6667V14.6667H1.33337V13.3333ZM2.66671 8.00001H4.00004V12.6667H2.66671V8.00001ZM6.00004 8.00001H7.33337V12.6667H6.00004V8.00001ZM8.66671 8.00001H10V12.6667H8.66671V8.00001ZM12 8.00001H13.3334V12.6667H12V8.00001ZM1.33337 4.66668L8.00004 1.33334L14.6667 4.66668V7.33334H1.33337V4.66668ZM2.66671 5.49068V6.00001H13.3334V5.49068L8.00004 2.82401L2.66671 5.49068ZM8.00004 5.33334C7.82323 5.33334 7.65366 5.26311 7.52864 5.13808C7.40361 5.01306 7.33337 4.84349 7.33337 4.66668C7.33337 4.48987 7.40361 4.3203 7.52864 4.19527C7.65366 4.07025 7.82323 4.00001 8.00004 4.00001C8.17685 4.00001 8.34642 4.07025 8.47145 4.19527C8.59647 4.3203 8.66671 4.48987 8.66671 4.66668C8.66671 4.84349 8.59647 5.01306 8.47145 5.13808C8.34642 5.26311 8.17685 5.33334 8.00004 5.33334Z" fill="#034099"/>
</svg>
