<svg width="16" height="16" viewBox="0 0 16 16" fill="none" xmlns="http://www.w3.org/2000/svg">
<path d="M13.3367 5.33333V3.33333H2.67V5.33333H13.3367ZM13.3367 6.66667H2.67V12.6667H13.3367V6.66667ZM2.00334 2H14.0033C14.1801 2 14.3497 2.07024 14.4747 2.19526C14.5998 2.32029 14.67 2.48986 14.67 2.66667V13.3333C14.67 13.5101 14.5998 13.6797 14.4747 13.8047C14.3497 13.9298 14.1801 14 14.0033 14H2.00334C1.82653 14 1.65696 13.9298 1.53193 13.8047C1.40691 13.6797 1.33667 13.5101 1.33667 13.3333V2.66667C1.33667 2.48986 1.40691 2.32029 1.53193 2.19526C1.65696 2.07024 1.82653 2 2.00334 2ZM7.33667 9.33333H11.3367V10.6667H4.33667L7.33667 7.66667V9.33333Z" fill="#034099"/>
</svg>
