<svg width="16" height="16" viewBox="0 0 16 16" fill="none" xmlns="http://www.w3.org/2000/svg">
<g clip-path="url(#clip0_15_608)">
<path d="M4.66663 11.9997C3.93329 11.9997 3.33996 12.5997 3.33996 13.333C3.33996 14.0663 3.93329 14.6663 4.66663 14.6663C5.39996 14.6663 5.99996 14.0663 5.99996 13.333C5.99996 12.5997 5.39996 11.9997 4.66663 11.9997ZM11.3333 11.9997C10.6 11.9997 10.0066 12.5997 10.0066 13.333C10.0066 14.0663 10.6 14.6663 11.3333 14.6663C12.0666 14.6663 12.6666 14.0663 12.6666 13.333C12.6666 12.5997 12.0666 11.9997 11.3333 11.9997ZM5.39996 8.66634H10.3666C10.8666 8.66634 11.3066 8.39301 11.5333 7.97967L14 3.30634L12.8333 2.66634L10.3666 7.33301H5.68663L2.84663 1.33301H0.666626V2.66634H1.99996L4.39996 7.72634L3.49996 9.35301C3.01329 10.2463 3.65329 11.333 4.66663 11.333H12.6666V9.99967H4.66663L5.39996 8.66634ZM7.99996 1.33301L10.6666 3.99967L7.99996 6.66634L7.05996 5.72634L8.11329 4.66634H5.33329V3.33301H8.11329L7.05329 2.27301L7.99996 1.33301Z" fill="#034099"/>
</g>
<defs>
<clipPath id="clip0_15_608">
<rect width="16" height="16" fill="white"/>
</clipPath>
</defs>
</svg>
