<svg width="16" height="16" viewBox="0 0 16 16" fill="none" xmlns="http://www.w3.org/2000/svg">
<path d="M7.99996 8.33334C7.38112 8.33334 6.78763 8.57918 6.35004 9.01676C5.91246 9.45435 5.66663 10.0478 5.66663 10.6667C5.66663 11.2855 5.91246 11.879 6.35004 12.3166C6.78763 12.7542 7.38112 13 7.99996 13C8.6188 13 9.21229 12.7542 9.64988 12.3166C10.0875 11.879 10.3333 11.2855 10.3333 10.6667C10.3333 10.0478 10.0875 9.45435 9.64988 9.01676C9.21229 8.57918 8.6188 8.33334 7.99996 8.33334ZM6.99996 10.6667C6.99996 10.4015 7.10532 10.1471 7.29285 9.95957C7.48039 9.77203 7.73474 9.66668 7.99996 9.66668C8.26518 9.66668 8.51953 9.77203 8.70707 9.95957C8.8946 10.1471 8.99996 10.4015 8.99996 10.6667C8.99996 10.9319 8.8946 11.1862 8.70707 11.3738C8.51953 11.5613 8.26518 11.6667 7.99996 11.6667C7.73474 11.6667 7.48039 11.5613 7.29285 11.3738C7.10532 11.1862 6.99996 10.9319 6.99996 10.6667Z" fill="#034099"/>
<path d="M11.684 3.41066L9.56467 0.439331L1.772 6.66466L1.34 6.66V6.66666H1V14.6667H15V6.66666H14.3587L13.0827 2.934L11.684 3.41066ZM12.95 6.66666H6.26467L11.244 4.96933L12.2587 4.64466L12.95 6.66666ZM10.3667 3.86L5.22667 5.612L9.29733 2.36L10.3667 3.86ZM2.33333 12.1127V9.21933C2.61478 9.12 2.87043 8.95893 3.08154 8.74794C3.29264 8.53696 3.45385 8.28139 3.55333 8H12.4467C12.5461 8.28152 12.7072 8.53721 12.9183 8.74832C13.1295 8.95943 13.3851 9.1206 13.6667 9.22V12.1133C13.3851 12.2127 13.1295 12.3739 12.9183 12.585C12.7072 12.7961 12.5461 13.0518 12.4467 13.3333H3.55467C3.45479 13.0518 3.29331 12.7961 3.08201 12.5849C2.87072 12.3737 2.61493 12.2124 2.33333 12.1127Z" fill="#034099"/>
</svg>
