<svg width="16" height="16" viewBox="0 0 16 16" fill="none" xmlns="http://www.w3.org/2000/svg">
<g clip-path="url(#clip0_15_668)">
<path d="M10.6666 2H0.666626V10.6667H10.6666V2Z" stroke="#034099" stroke-width="1.5" stroke-linecap="round" stroke-linejoin="round"/>
<path d="M10.6666 5.33301H13.3333L15.3333 7.33301V10.6663H10.6666V5.33301Z" stroke="#034099" stroke-width="1.5" stroke-linecap="round" stroke-linejoin="round"/>
<path d="M3.66667 14.0003C4.58714 14.0003 5.33333 13.2541 5.33333 12.3337C5.33333 11.4132 4.58714 10.667 3.66667 10.667C2.74619 10.667 2 11.4132 2 12.3337C2 13.2541 2.74619 14.0003 3.66667 14.0003Z" stroke="#034099" stroke-width="1.5" stroke-linecap="round" stroke-linejoin="round"/>
<path d="M12.3333 14.0003C13.2538 14.0003 14 13.2541 14 12.3337C14 11.4132 13.2538 10.667 12.3333 10.667C11.4128 10.667 10.6666 11.4132 10.6666 12.3337C10.6666 13.2541 11.4128 14.0003 12.3333 14.0003Z" stroke="#034099" stroke-width="1.5" stroke-linecap="round" stroke-linejoin="round"/>
</g>
<defs>
<clipPath id="clip0_15_668">
<rect width="16" height="16" fill="white"/>
</clipPath>
</defs>
</svg>
