<svg width="17" height="20" viewBox="0 0 17 20" fill="none" xmlns="http://www.w3.org/2000/svg">
<path d="M14.1667 0.561523C12.613 0.561523 11.3333 1.84124 11.3333 3.39486C11.3333 3.5752 11.3539 3.75103 11.3868 3.92242L4.64844 7.8533C4.15418 7.43505 3.52474 7.17263 2.83333 7.17263C1.27971 7.17263 0 8.45235 0 10.006C0 11.5596 1.27971 12.8393 2.83333 12.8393C3.52474 12.8393 4.15418 12.5769 4.64844 12.1586L11.3868 16.0877C11.3537 16.2596 11.3333 16.4361 11.3333 16.6171C11.3333 18.1707 12.613 19.4504 14.1667 19.4504C15.7203 19.4504 17 18.1707 17 16.6171C17 15.0635 15.7203 13.7837 14.1667 13.7837C13.4748 13.7837 12.8459 14.0476 12.3516 14.4663L5.61317 10.5335C5.64609 10.3621 5.66667 10.1863 5.66667 10.006C5.66667 9.82562 5.64609 9.6498 5.61317 9.47841L12.3516 5.54753C12.8458 5.96577 13.4753 6.22819 14.1667 6.22819C15.7203 6.22819 17 4.94848 17 3.39486C17 1.84124 15.7203 0.561523 14.1667 0.561523ZM14.1667 2.45041C14.6995 2.45041 15.1111 2.86207 15.1111 3.39486C15.1111 3.92765 14.6995 4.3393 14.1667 4.3393C13.6339 4.3393 13.2222 3.92765 13.2222 3.39486C13.2222 2.86207 13.6339 2.45041 14.1667 2.45041ZM2.83333 9.06152C3.36612 9.06152 3.77778 9.47318 3.77778 10.006C3.77778 10.5388 3.36612 10.9504 2.83333 10.9504C2.30054 10.9504 1.88889 10.5388 1.88889 10.006C1.88889 9.47318 2.30054 9.06152 2.83333 9.06152ZM14.1667 15.6726C14.6995 15.6726 15.1111 16.0843 15.1111 16.6171C15.1111 17.1499 14.6995 17.5615 14.1667 17.5615C13.6339 17.5615 13.2222 17.1499 13.2222 16.6171C13.2222 16.0843 13.6339 15.6726 14.1667 15.6726Z" fill="#083D7C"/>
</svg>
