<svg width="20" height="21" viewBox="0 0 20 21" fill="none" xmlns="http://www.w3.org/2000/svg">
<path d="M17.6407 11.288C17.6818 10.959 17.7127 10.6301 17.7127 10.2805C17.7127 9.93099 17.6818 9.60202 17.6407 9.27304L19.8099 7.57675C20.0052 7.42254 20.0566 7.14497 19.9333 6.9188L17.8772 3.36173C17.7846 3.19725 17.6099 3.10472 17.4248 3.10472C17.3631 3.10472 17.3014 3.115 17.25 3.13556L14.6902 4.16362C14.1556 3.75239 13.5799 3.41314 12.9528 3.15612L12.5621 0.431782C12.5313 0.18505 12.3154 0 12.0584 0H7.94616C7.68915 0 7.47326 0.18505 7.44242 0.431782L7.05176 3.15612C6.42464 3.41314 5.84894 3.76267 5.31435 4.16362L2.7545 3.13556C2.69281 3.115 2.63113 3.10472 2.56945 3.10472C2.39468 3.10472 2.21991 3.19725 2.12738 3.36173L0.0712765 6.9188C-0.0623704 7.14497 -0.00068705 7.42254 0.194643 7.57675L2.36384 9.27304C2.32271 9.60202 2.29187 9.94127 2.29187 10.2805C2.29187 10.6198 2.32271 10.959 2.36384 11.288L0.194643 12.9843C-0.00068705 13.1385 -0.0520898 13.4161 0.0712765 13.6423L2.12738 17.1993C2.21991 17.3638 2.39468 17.4563 2.57973 17.4563C2.64141 17.4563 2.70309 17.4461 2.7545 17.4255L5.31435 16.3974C5.84894 16.8087 6.42464 17.1479 7.05176 17.4049L7.44242 20.1293C7.47326 20.376 7.68915 20.5611 7.94616 20.5611H12.0584C12.3154 20.5611 12.5313 20.376 12.5621 20.1293L12.9528 17.4049C13.5799 17.1479 14.1556 16.7984 14.6902 16.3974L17.25 17.4255C17.3117 17.4461 17.3734 17.4563 17.4351 17.4563C17.6099 17.4563 17.7846 17.3638 17.8772 17.1993L19.9333 13.6423C20.0566 13.4161 20.0052 13.1385 19.8099 12.9843L17.6407 11.288ZM15.6052 9.53005C15.6463 9.84875 15.6566 10.0646 15.6566 10.2805C15.6566 10.4964 15.636 10.7226 15.6052 11.031L15.4612 12.1927L16.3762 12.9123L17.4865 13.7759L16.7669 15.0199L15.4612 14.4956L14.3921 14.0638L13.4668 14.7628C13.0247 15.0918 12.6032 15.3386 12.1817 15.5133L11.092 15.9554L10.9275 17.1171L10.7219 18.505H9.28263L9.0873 17.1171L8.92281 15.9554L7.83308 15.5133C7.39102 15.3283 6.97979 15.0918 6.56857 14.7834L5.63304 14.0638L4.54331 14.5058L3.23768 15.0301L2.51804 13.7862L3.62834 12.9226L4.54331 12.203L4.39938 11.0413C4.36854 10.7226 4.34798 10.4861 4.34798 10.2805C4.34798 10.0749 4.36854 9.83847 4.39938 9.53005L4.54331 8.36835L3.62834 7.64872L2.51804 6.78515L3.23768 5.54121L4.54331 6.06551L5.61248 6.4973L6.53773 5.79822C6.97979 5.46924 7.4013 5.22251 7.8228 5.04774L8.91253 4.60568L9.07702 3.44398L9.28263 2.05611H10.7116L10.907 3.44398L11.0714 4.60568L12.1612 5.04774C12.6032 5.23279 13.0145 5.46924 13.4257 5.77766L14.3612 6.4973L15.451 6.05523L16.7566 5.53093L17.4762 6.77487L16.3762 7.64872L15.4612 8.36835L15.6052 9.53005ZM10.0023 6.16832C7.73027 6.16832 5.89006 8.00853 5.89006 10.2805C5.89006 12.5525 7.73027 14.3927 10.0023 14.3927C12.2743 14.3927 14.1145 12.5525 14.1145 10.2805C14.1145 8.00853 12.2743 6.16832 10.0023 6.16832ZM10.0023 12.3366C8.87141 12.3366 7.94616 11.4114 7.94616 10.2805C7.94616 9.14967 8.87141 8.22443 10.0023 8.22443C11.1331 8.22443 12.0584 9.14967 12.0584 10.2805C12.0584 11.4114 11.1331 12.3366 10.0023 12.3366Z" fill="#083D7C"/>
</svg>
