<svg width="18" height="18" viewBox="0 0 18 18" fill="none" xmlns="http://www.w3.org/2000/svg">
<path d="M1.99659 7.05164L2.43112 7.31531L2.68952 6.83789C3.27206 5.8623 5.05483 3.58594 9.00007 3.58594C13.043 3.58594 14.7657 6.05813 15.3317 6.87164L15.6186 7.31813L16.5193 6.75L16.2191 6.28031C15.9069 5.82855 15.2516 4.89059 14.0823 4.06195C12.6616 3.05227 10.9512 2.54004 9.00007 2.54004C4.49761 2.54004 2.43675 5.18062 1.75788 6.31055L1.49878 6.75L1.89851 6.99117C1.91668 7.00539 1.93583 7.01831 1.95581 7.02984C1.96903 7.03779 1.98264 7.04507 1.99659 7.05164Z" fill="black"/>
<path d="M13.332 6.05859C12.0825 5.04152 10.5856 4.50293 9.00004 4.50293C5.5716 4.50293 3.29383 6.82324 2.55484 9.12492C1.87809 11.2505 2.70074 14.3305 2.7352 14.4623L2.88918 14.9479L3.94141 14.7218L3.77477 14.1945C3.76738 14.1681 2.99781 11.2789 3.58457 9.44098C3.90098 8.45379 4.55945 7.49332 5.38984 6.81164C6.3918 5.99074 7.64125 5.55516 9.00004 5.55516C12.1845 5.55516 13.9898 8.03754 14.5002 9.3559C14.8964 10.373 14.805 11.5293 14.2795 12.2387C14.085 12.4985 13.7423 12.8037 13.2205 12.7773C12.0319 12.7168 11.8263 12.1294 11.5404 11.0107C11.4033 10.4721 11.2627 9.91453 10.9122 9.46383C10.4854 8.91012 9.86453 8.64258 9.00391 8.64258C8.07824 8.64258 7.37723 8.94773 6.91633 9.5468C5.91086 10.8574 6.56477 13.0951 6.59254 13.1893L6.60027 13.2192C6.64984 13.3549 7.86871 16.6171 11.133 17.4267L11.6522 17.5396L11.9366 16.5302L11.3998 16.4096C8.79051 15.7617 7.70102 13.0912 7.61734 12.8803C7.52302 12.538 7.46296 12.1872 7.43805 11.833C7.40008 11.3246 7.4268 10.624 7.76957 10.1757C8.02094 9.84809 8.42488 9.68988 9.00004 9.68988C10.0473 9.68988 10.2228 10.2021 10.497 11.2645C10.7635 12.3002 11.1298 13.7202 13.1632 13.8221C13.9441 13.8598 14.6489 13.5131 15.1439 12.8501C15.8868 11.8559 16.0278 10.3339 15.5022 8.97797C15.0916 7.91062 14.2995 6.84961 13.332 6.05859Z" fill="black"/>
<path d="M5.42039 12.066C5.2984 11.0718 5.46996 9.56988 6.35379 8.59324C6.96691 7.91508 7.85812 7.57371 8.99719 7.57371C10.3152 7.57371 11.3129 8.16152 11.9682 9.31781C12.2908 9.89802 12.5038 10.5326 12.5968 11.1899L12.6471 11.7063L13.7018 11.629C13.7028 11.4456 13.691 11.2623 13.6666 11.0805C13.6628 11.0355 13.5411 9.93937 12.9284 8.83934C12.0825 7.32375 10.7265 6.52148 9 6.52148C7.54102 6.52148 6.3791 6.98484 5.55258 7.89645C4.43285 9.13184 4.20434 10.9287 4.36043 12.1978V12.2094C4.64062 14.1265 5.37891 15.6596 6.68496 17.0307L7.09277 17.4252L7.8293 16.6591L7.46578 16.315C6.31547 15.1098 5.66402 13.7612 5.42039 12.066ZM4.65715 2.55445C5.04668 2.3182 6.42445 1.61332 9 1.61332C12.0776 1.61332 13.4452 2.62301 13.4603 2.63039L13.9489 2.94187L14.5195 2.05559L14.0548 1.75465C14.0365 1.74129 14.0175 1.72793 13.9985 1.71527C13.5527 1.42523 11.9721 0.5625 9 0.5625C5.91645 0.5625 4.33301 1.49344 3.95824 1.74762L3.48047 2.05734L4.05 2.94363L4.65715 2.55445Z" fill="black"/>
<path d="M13.7318 14.597C12.5586 14.7288 11.6066 14.5031 10.8943 13.9343C9.69059 12.9699 9.53449 11.2937 9.53062 11.2624L9.48738 10.7393L8.41406 10.8177L8.46012 11.345C8.46785 11.4315 8.64293 13.4807 10.2046 14.739C10.9819 15.3679 11.9532 15.6843 13.0958 15.6843C13.3491 15.6838 13.6022 15.6687 13.8538 15.639L14.437 15.5655L14.2226 14.521L13.7318 14.597Z" fill="black"/>
</svg>
